<mxfile host="app.diagrams.net" modified="2023-09-14T15:10:39.075Z" agent="Mozilla/5.0 (Macintosh; Intel Mac OS X 10_15_7) AppleWebKit/605.1.15 (KHTML, like Gecko) Version/16.6 Safari/605.1.15" etag="NuveEXwFyxxe0yVuASJW" version="21.7.5" type="github">
  <diagram name="Page-1" id="teTiFmHUW9mAQAB-4Mwy">
    <mxGraphModel dx="2219" dy="1079" grid="1" gridSize="10" guides="1" tooltips="1" connect="1" arrows="1" fold="1" page="1" pageScale="1" pageWidth="850" pageHeight="1100" math="0" shadow="0">
      <root>
        <mxCell id="0" />
        <mxCell id="1" parent="0" />
        <mxCell id="GYPaCuKfYNNBqrK7I_er-4" value="" style="edgeStyle=orthogonalEdgeStyle;rounded=0;orthogonalLoop=1;jettySize=auto;html=1;" edge="1" parent="1" source="GYPaCuKfYNNBqrK7I_er-1" target="GYPaCuKfYNNBqrK7I_er-3">
          <mxGeometry relative="1" as="geometry" />
        </mxCell>
        <mxCell id="GYPaCuKfYNNBqrK7I_er-1" value="create UseCase&lt;br&gt;&lt;p style=&quot;margin: 0px; font-style: normal; font-variant-caps: normal; font-stretch: normal; font-size: 13px; line-height: normal; font-family: Courier; font-size-adjust: none; font-kerning: auto; font-variant-alternates: normal; font-variant-ligatures: normal; font-variant-numeric: normal; font-variant-east-asian: normal; font-variant-position: normal; font-feature-settings: normal; font-optical-sizing: auto; font-variation-settings: normal; color: rgb(153, 168, 186); background-color: rgb(32, 32, 32);&quot;&gt;GetNewsHeadlinesUseCase&lt;/p&gt;&lt;br/&gt;&lt;p style=&quot;margin: 0px; font-style: normal; font-variant-caps: normal; font-stretch: normal; font-size: 13px; line-height: normal; font-family: Courier; font-size-adjust: none; font-kerning: auto; font-variant-alternates: normal; font-variant-ligatures: normal; font-variant-numeric: normal; font-variant-east-asian: normal; font-variant-position: normal; font-feature-settings: normal; font-optical-sizing: auto; font-variation-settings: normal; color: rgb(153, 168, 186); background-color: rgb(32, 32, 32);&quot;&gt;GetSearchedNewsUseCase&lt;/p&gt;&lt;br/&gt;&lt;p style=&quot;margin: 0px; font-style: normal; font-variant-caps: normal; font-stretch: normal; font-size: 13px; line-height: normal; font-family: Courier; font-size-adjust: none; font-kerning: auto; font-variant-alternates: normal; font-variant-ligatures: normal; font-variant-numeric: normal; font-variant-east-asian: normal; font-variant-position: normal; font-feature-settings: normal; font-optical-sizing: auto; font-variation-settings: normal; color: rgb(153, 168, 186); background-color: rgb(32, 32, 32);&quot;&gt;SaveNewsUseCase&lt;/p&gt;&lt;p style=&quot;margin: 0px; font-style: normal; font-variant-caps: normal; font-stretch: normal; font-size: 13px; line-height: normal; font-family: Courier; font-size-adjust: none; font-kerning: auto; font-variant-alternates: normal; font-variant-ligatures: normal; font-variant-numeric: normal; font-variant-east-asian: normal; font-variant-position: normal; font-feature-settings: normal; font-optical-sizing: auto; font-variation-settings: normal; color: rgb(153, 168, 186); background-color: rgb(32, 32, 32);&quot;&gt;&lt;span style=&quot;color: rgb(169, 183, 198); font-family: &amp;quot;JetBrains Mono&amp;quot;, monospace; font-size: 9.8pt; text-align: start; background-color: rgb(43, 43, 43);&quot;&gt;&lt;br&gt;&lt;/span&gt;&lt;/p&gt;&lt;p style=&quot;margin: 0px; font-style: normal; font-variant-caps: normal; font-stretch: normal; font-size: 13px; line-height: normal; font-family: Courier; font-size-adjust: none; font-kerning: auto; font-variant-alternates: normal; font-variant-ligatures: normal; font-variant-numeric: normal; font-variant-east-asian: normal; font-variant-position: normal; font-feature-settings: normal; font-optical-sizing: auto; font-variation-settings: normal; color: rgb(153, 168, 186); background-color: rgb(32, 32, 32);&quot;&gt;&lt;span style=&quot;color: rgb(169, 183, 198); font-family: &amp;quot;JetBrains Mono&amp;quot;, monospace; font-size: 9.8pt; text-align: start; background-color: rgb(43, 43, 43);&quot;&gt;DeleteSavedNewsUseCase&lt;/span&gt;&lt;/p&gt;&lt;p style=&quot;margin: 0px; font-style: normal; font-variant-caps: normal; font-stretch: normal; font-size: 13px; line-height: normal; font-family: Courier; font-size-adjust: none; font-kerning: auto; font-variant-alternates: normal; font-variant-ligatures: normal; font-variant-numeric: normal; font-variant-east-asian: normal; font-variant-position: normal; font-feature-settings: normal; font-optical-sizing: auto; font-variation-settings: normal; color: rgb(153, 168, 186); background-color: rgb(32, 32, 32);&quot;&gt;&lt;span style=&quot;font-family: &amp;quot;JetBrains Mono&amp;quot;, monospace; font-size: 9.8pt; color: rgb(169, 183, 198); text-align: start; background-color: rgb(43, 43, 43);&quot;&gt;GetNewsHeadlinesUseCase&lt;/span&gt;&lt;/p&gt;" style="rounded=0;whiteSpace=wrap;html=1;" vertex="1" parent="1">
          <mxGeometry x="30" y="50" width="360" height="160" as="geometry" />
        </mxCell>
        <mxCell id="GYPaCuKfYNNBqrK7I_er-6" value="" style="edgeStyle=orthogonalEdgeStyle;rounded=0;orthogonalLoop=1;jettySize=auto;html=1;" edge="1" parent="1" source="GYPaCuKfYNNBqrK7I_er-3" target="GYPaCuKfYNNBqrK7I_er-5">
          <mxGeometry relative="1" as="geometry" />
        </mxCell>
        <mxCell id="GYPaCuKfYNNBqrK7I_er-3" value="repository&lt;br&gt;-&amp;gt; create interface" style="whiteSpace=wrap;html=1;rounded=0;" vertex="1" parent="1">
          <mxGeometry x="150" y="260" width="120" height="60" as="geometry" />
        </mxCell>
        <mxCell id="GYPaCuKfYNNBqrK7I_er-8" value="" style="edgeStyle=orthogonalEdgeStyle;rounded=0;orthogonalLoop=1;jettySize=auto;html=1;" edge="1" parent="1" source="GYPaCuKfYNNBqrK7I_er-5" target="GYPaCuKfYNNBqrK7I_er-7">
          <mxGeometry relative="1" as="geometry" />
        </mxCell>
        <mxCell id="GYPaCuKfYNNBqrK7I_er-5" value="Gson to model&lt;br&gt;create data/util: create Resource class&lt;br&gt;&lt;pre style=&quot;text-align: start; background-color: rgb(43, 43, 43); color: rgb(169, 183, 198); font-family: &amp;quot;JetBrains Mono&amp;quot;, monospace; font-size: 9.8pt;&quot;&gt;sealed class Resource&amp;lt;&lt;span style=&quot;color: rgb(32, 153, 157);&quot;&gt;T&lt;/span&gt;&amp;gt;(&lt;br&gt;    &lt;span style=&quot;color: rgb(204, 120, 50);&quot;&gt;val &lt;/span&gt;&lt;span style=&quot;color: rgb(152, 118, 170);&quot;&gt;data&lt;/span&gt;: &lt;span style=&quot;color: rgb(32, 153, 157);&quot;&gt;T&lt;/span&gt;? = &lt;span style=&quot;color: rgb(204, 120, 50);&quot;&gt;null,&lt;br&gt;&lt;/span&gt;&lt;span style=&quot;color: rgb(204, 120, 50);&quot;&gt;    val &lt;/span&gt;&lt;span style=&quot;color: rgb(152, 118, 170);&quot;&gt;message&lt;/span&gt;: String? = &lt;span style=&quot;color: rgb(204, 120, 50);&quot;&gt;null&lt;br&gt;&lt;/span&gt;) {&lt;br&gt;    &lt;span style=&quot;color: rgb(204, 120, 50);&quot;&gt;class &lt;/span&gt;Success&amp;lt;&lt;span style=&quot;color: rgb(32, 153, 157);&quot;&gt;T&lt;/span&gt;&amp;gt;(data: &lt;span style=&quot;color: rgb(32, 153, 157);&quot;&gt;T&lt;/span&gt;) : Resource&amp;lt;&lt;span style=&quot;color: rgb(32, 153, 157);&quot;&gt;T&lt;/span&gt;&amp;gt;(data)&lt;br&gt;    &lt;span style=&quot;color: rgb(204, 120, 50);&quot;&gt;class &lt;/span&gt;Loading&amp;lt;&lt;span style=&quot;color: rgb(32, 153, 157);&quot;&gt;T&lt;/span&gt;&amp;gt;(data: &lt;span style=&quot;color: rgb(32, 153, 157);&quot;&gt;T&lt;/span&gt;? = &lt;span style=&quot;color: rgb(204, 120, 50);&quot;&gt;null&lt;/span&gt;) : Resource&amp;lt;&lt;span style=&quot;color: rgb(32, 153, 157);&quot;&gt;T&lt;/span&gt;&amp;gt;(data)&lt;br&gt;    &lt;span style=&quot;color: rgb(204, 120, 50);&quot;&gt;class &lt;/span&gt;Error&amp;lt;&lt;span style=&quot;color: rgb(32, 153, 157);&quot;&gt;T&lt;/span&gt;&amp;gt;(message: String&lt;span style=&quot;color: rgb(204, 120, 50);&quot;&gt;, &lt;/span&gt;data: &lt;span style=&quot;color: rgb(32, 153, 157);&quot;&gt;T&lt;/span&gt;? = &lt;span style=&quot;color: rgb(204, 120, 50);&quot;&gt;null&lt;/span&gt;) : Resource&amp;lt;&lt;span style=&quot;color: rgb(32, 153, 157);&quot;&gt;T&lt;/span&gt;&amp;gt;(data&lt;span style=&quot;color: rgb(204, 120, 50);&quot;&gt;, &lt;/span&gt;message)&lt;br&gt;}&lt;br&gt;&lt;/pre&gt;" style="whiteSpace=wrap;html=1;rounded=0;" vertex="1" parent="1">
          <mxGeometry x="160" y="460" width="100" height="80" as="geometry" />
        </mxCell>
        <mxCell id="GYPaCuKfYNNBqrK7I_er-10" value="" style="edgeStyle=orthogonalEdgeStyle;rounded=0;orthogonalLoop=1;jettySize=auto;html=1;" edge="1" parent="1" source="GYPaCuKfYNNBqrK7I_er-7" target="GYPaCuKfYNNBqrK7I_er-9">
          <mxGeometry relative="1" as="geometry" />
        </mxCell>
        <mxCell id="GYPaCuKfYNNBqrK7I_er-7" value="function in repository&lt;br&gt;&lt;pre style=&quot;text-align: start; background-color: rgb(43, 43, 43); color: rgb(169, 183, 198); font-family: &amp;quot;JetBrains Mono&amp;quot;, monospace; font-size: 9.8pt;&quot;&gt;suspend fun &lt;span style=&quot;color: rgb(255, 198, 109);&quot;&gt;getNewsHeadlines&lt;/span&gt;(): Resource&amp;lt;APIResponse&amp;gt;&lt;br&gt;&lt;span style=&quot;color: rgb(204, 120, 50);&quot;&gt;suspend fun &lt;/span&gt;&lt;span style=&quot;color: rgb(255, 198, 109);&quot;&gt;getSearchedNews&lt;/span&gt;(searchQuery:String) : Resource&amp;lt;APIResponse&amp;gt;&lt;br&gt;&lt;span style=&quot;color: rgb(204, 120, 50);&quot;&gt;suspend fun &lt;/span&gt;&lt;span style=&quot;color: rgb(255, 198, 109);&quot;&gt;saveNews&lt;/span&gt;(article: Article)&lt;br&gt;&lt;span style=&quot;color: rgb(204, 120, 50);&quot;&gt;suspend fun &lt;/span&gt;&lt;span style=&quot;color: rgb(255, 198, 109);&quot;&gt;deleteNews&lt;/span&gt;(article: Article)&lt;br&gt;&lt;span style=&quot;color: rgb(204, 120, 50);&quot;&gt;fun &lt;/span&gt;&lt;span style=&quot;color: rgb(255, 198, 109);&quot;&gt;getSavedNews&lt;/span&gt;(): Flow&amp;lt;List&amp;lt;Article&amp;gt;&amp;gt;&lt;/pre&gt;" style="whiteSpace=wrap;html=1;rounded=0;" vertex="1" parent="1">
          <mxGeometry x="150" y="620" width="120" height="60" as="geometry" />
        </mxCell>
        <mxCell id="GYPaCuKfYNNBqrK7I_er-12" value="" style="edgeStyle=orthogonalEdgeStyle;rounded=0;orthogonalLoop=1;jettySize=auto;html=1;" edge="1" parent="1" source="GYPaCuKfYNNBqrK7I_er-9" target="GYPaCuKfYNNBqrK7I_er-11">
          <mxGeometry relative="1" as="geometry" />
        </mxCell>
        <mxCell id="GYPaCuKfYNNBqrK7I_er-9" value="create APIService&lt;br&gt;using retrofit" style="whiteSpace=wrap;html=1;rounded=0;" vertex="1" parent="1">
          <mxGeometry x="150" y="760" width="120" height="60" as="geometry" />
        </mxCell>
        <mxCell id="GYPaCuKfYNNBqrK7I_er-14" value="" style="edgeStyle=orthogonalEdgeStyle;rounded=0;orthogonalLoop=1;jettySize=auto;html=1;" edge="1" parent="1" source="GYPaCuKfYNNBqrK7I_er-11" target="GYPaCuKfYNNBqrK7I_er-13">
          <mxGeometry relative="1" as="geometry" />
        </mxCell>
        <mxCell id="GYPaCuKfYNNBqrK7I_er-11" value="data-&amp;gt;repository-&amp;gt; dataresource/ dataresourceImpl&lt;br&gt;create class NewsRemoteDataSource&amp;nbsp;&lt;br&gt;return&amp;nbsp;Response&amp;lt;APIResponse&amp;gt;&lt;br&gt;" style="whiteSpace=wrap;html=1;rounded=0;" vertex="1" parent="1">
          <mxGeometry x="20" y="900" width="380" height="60" as="geometry" />
        </mxCell>
        <mxCell id="GYPaCuKfYNNBqrK7I_er-13" value="data-&amp;gt; repository: implement NewsRepository" style="whiteSpace=wrap;html=1;rounded=0;" vertex="1" parent="1">
          <mxGeometry x="150" y="1040" width="120" height="60" as="geometry" />
        </mxCell>
      </root>
    </mxGraphModel>
  </diagram>
</mxfile>
